<svg width="78" height="28" viewBox="0 0 78 28" fill="none" xmlns="http://www.w3.org/2000/svg">
<path d="M12.5 11.3333C12.8536 11.3333 13.1928 11.1928 13.4428 10.9427C13.6929 10.6927 13.8333 10.3535 13.8333 9.99992C13.8333 9.6463 13.6929 9.30716 13.4428 9.05711C13.1928 8.80706 12.8536 8.66659 12.5 8.66659C12.5 8.31296 12.3595 7.97382 12.1095 7.72378C11.8594 7.47373 11.5203 7.33325 11.1667 7.33325C10.813 7.33325 10.4739 7.47373 10.2239 7.72378C9.97381 7.97382 9.83333 8.31296 9.83333 8.66659C9.83333 8.31296 9.69285 7.97382 9.44281 7.72378C9.19276 7.47373 8.85362 7.33325 8.5 7.33325C8.14638 7.33325 7.80724 7.47373 7.55719 7.72378C7.30714 7.97382 7.16666 8.31296 7.16666 8.66659C7.16666 8.31296 7.02619 7.97382 6.77614 7.72378C6.52609 7.47373 6.18695 7.33325 5.83333 7.33325C5.47971 7.33325 5.14057 7.47373 4.89052 7.72378C4.64047 7.97382 4.5 8.31296 4.5 8.66659C4.14638 8.66659 3.80724 8.80706 3.55719 9.05711C3.30714 9.30716 3.16666 9.6463 3.16666 9.99992C3.16666 10.3535 3.30714 10.6927 3.55719 10.9427C3.80724 11.1928 4.14638 11.3333 4.5 11.3333M7.16666 20.6666L6.5 11.3333M9.83333 20.6666L10.5 11.3333M13.8333 11.3333C14.1667 11.3333 14.4333 11.5999 14.3667 11.9999L12.6333 19.9999C12.5667 20.3333 12.1667 20.6666 11.8333 20.6666H5.16666C4.76666 20.6666 4.43333 20.3999 4.36666 19.9999L2.63333 11.9999C2.56666 11.5999 2.83333 11.3333 3.16666 11.3333H13.8333Z" stroke="#818CF8" stroke-width="1.33333" stroke-linecap="round" stroke-linejoin="round"/>
<path d="M27.18 21.2C26.5267 21.2 25.9267 21.0733 25.38 20.82C24.8333 20.5667 24.3867 20.22 24.04 19.78C23.6933 19.3267 23.4933 18.8133 23.44 18.24V14.14C23.4933 13.5667 23.6933 13.0467 24.04 12.58C24.3867 12.1133 24.8333 11.7467 25.38 11.48C25.9267 11.2133 26.5267 11.08 27.18 11.08C28.1 11.08 28.9133 11.3 29.62 11.74C30.34 12.18 30.9 12.78 31.3 13.54C31.7133 14.3 31.92 15.1667 31.92 16.14C31.92 17.1133 31.7133 17.98 31.3 18.74C30.9 19.5 30.34 20.1 29.62 20.54C28.9133 20.98 28.1 21.2 27.18 21.2ZM21.58 25.1V11.28H24.64V13.78L24.14 16.14L24.6 18.5V25.1H21.58ZM26.62 18.44C27.06 18.44 27.44 18.34 27.76 18.14C28.0933 17.94 28.3533 17.6667 28.54 17.32C28.7267 16.9733 28.82 16.58 28.82 16.14C28.82 15.6867 28.7267 15.2867 28.54 14.94C28.3533 14.5933 28.0933 14.3267 27.76 14.14C27.44 13.94 27.0667 13.84 26.64 13.84C26.2133 13.84 25.8333 13.94 25.5 14.14C25.18 14.3267 24.9267 14.5933 24.74 14.94C24.5533 15.2867 24.46 15.6867 24.46 16.14C24.46 16.58 24.5467 16.9733 24.72 17.32C24.9067 17.6667 25.1667 17.94 25.5 18.14C25.8333 18.34 26.2067 18.44 26.62 18.44ZM38.1545 21.22C37.1545 21.22 36.2479 21 35.4345 20.56C34.6345 20.1067 34.0012 19.4933 33.5345 18.72C33.0679 17.9467 32.8345 17.08 32.8345 16.12C32.8345 15.16 33.0679 14.3 33.5345 13.54C34.0012 12.78 34.6345 12.18 35.4345 11.74C36.2345 11.2867 37.1412 11.06 38.1545 11.06C39.1679 11.06 40.0745 11.28 40.8745 11.72C41.6745 12.16 42.3079 12.7667 42.7745 13.54C43.2412 14.3 43.4745 15.16 43.4745 16.12C43.4745 17.08 43.2412 17.9467 42.7745 18.72C42.3079 19.4933 41.6745 20.1067 40.8745 20.56C40.0745 21 39.1679 21.22 38.1545 21.22ZM38.1545 18.44C38.5945 18.44 38.9812 18.3467 39.3145 18.16C39.6479 17.96 39.9012 17.6867 40.0745 17.34C40.2612 16.98 40.3545 16.5733 40.3545 16.12C40.3545 15.6667 40.2612 15.2733 40.0745 14.94C39.8879 14.5933 39.6279 14.3267 39.2945 14.14C38.9745 13.94 38.5945 13.84 38.1545 13.84C37.7279 13.84 37.3479 13.94 37.0145 14.14C36.6812 14.3267 36.4212 14.5933 36.2345 14.94C36.0479 15.2867 35.9545 15.6867 35.9545 16.14C35.9545 16.58 36.0479 16.98 36.2345 17.34C36.4212 17.6867 36.6812 17.96 37.0145 18.16C37.3479 18.3467 37.7279 18.44 38.1545 18.44ZM50.598 21.2C49.9446 21.2 49.3446 21.0733 48.798 20.82C48.2513 20.5667 47.8046 20.22 47.458 19.78C47.1113 19.3267 46.9113 18.8133 46.858 18.24V14.14C46.9113 13.5667 47.1113 13.0467 47.458 12.58C47.8046 12.1133 48.2513 11.7467 48.798 11.48C49.3446 11.2133 49.9446 11.08 50.598 11.08C51.518 11.08 52.3313 11.3 53.038 11.74C53.758 12.18 54.318 12.78 54.718 13.54C55.1313 14.3 55.338 15.1667 55.338 16.14C55.338 17.1133 55.1313 17.98 54.718 18.74C54.318 19.5 53.758 20.1 53.038 20.54C52.3313 20.98 51.518 21.2 50.598 21.2ZM44.998 25.1V11.28H48.058V13.78L47.558 16.14L48.018 18.5V25.1H44.998ZM50.038 18.44C50.478 18.44 50.858 18.34 51.178 18.14C51.5113 17.94 51.7713 17.6667 51.958 17.32C52.1446 16.9733 52.238 16.58 52.238 16.14C52.238 15.6867 52.1446 15.2867 51.958 14.94C51.7713 14.5933 51.5113 14.3267 51.178 14.14C50.858 13.94 50.4846 13.84 50.058 13.84C49.6313 13.84 49.2513 13.94 48.918 14.14C48.598 14.3267 48.3446 14.5933 48.158 14.94C47.9713 15.2867 47.878 15.6867 47.878 16.14C47.878 16.58 47.9646 16.9733 48.138 17.32C48.3246 17.6667 48.5846 17.94 48.918 18.14C49.2513 18.34 49.6246 18.44 50.038 18.44ZM61.5925 21.22C60.5925 21.22 59.6858 21 58.8725 20.56C58.0592 20.12 57.4192 19.5133 56.9525 18.74C56.4858 17.9667 56.2525 17.1 56.2525 16.14C56.2525 15.1667 56.4858 14.3 56.9525 13.54C57.4325 12.7667 58.0792 12.16 58.8925 11.72C59.7058 11.28 60.6192 11.06 61.6325 11.06C62.3925 11.06 63.0858 11.1933 63.7125 11.46C64.3525 11.7133 64.9192 12.1 65.4125 12.62L63.4525 14.58C63.2258 14.3267 62.9592 14.14 62.6525 14.02C62.3592 13.9 62.0192 13.84 61.6325 13.84C61.1925 13.84 60.7992 13.94 60.4525 14.14C60.1192 14.3267 59.8525 14.5933 59.6525 14.94C59.4658 15.2733 59.3725 15.6667 59.3725 16.12C59.3725 16.5733 59.4658 16.9733 59.6525 17.32C59.8525 17.6667 60.1258 17.94 60.4725 18.14C60.8192 18.34 61.2058 18.44 61.6325 18.44C62.0325 18.44 62.3858 18.3733 62.6925 18.24C63.0125 18.0933 63.2858 17.8933 63.5125 17.64L65.4525 19.6C64.9458 20.1333 64.3725 20.54 63.7325 20.82C63.0925 21.0867 62.3792 21.22 61.5925 21.22ZM71.26 21.22C70.26 21.22 69.3533 21 68.54 20.56C67.74 20.1067 67.1067 19.4933 66.64 18.72C66.1733 17.9467 65.94 17.08 65.94 16.12C65.94 15.16 66.1733 14.3 66.64 13.54C67.1067 12.78 67.74 12.18 68.54 11.74C69.34 11.2867 70.2467 11.06 71.26 11.06C72.2733 11.06 73.18 11.28 73.98 11.72C74.78 12.16 75.4133 12.7667 75.88 13.54C76.3467 14.3 76.58 15.16 76.58 16.12C76.58 17.08 76.3467 17.9467 75.88 18.72C75.4133 19.4933 74.78 20.1067 73.98 20.56C73.18 21 72.2733 21.22 71.26 21.22ZM71.26 18.44C71.7 18.44 72.0867 18.3467 72.42 18.16C72.7533 17.96 73.0067 17.6867 73.18 17.34C73.3667 16.98 73.46 16.5733 73.46 16.12C73.46 15.6667 73.3667 15.2733 73.18 14.94C72.9933 14.5933 72.7333 14.3267 72.4 14.14C72.08 13.94 71.7 13.84 71.26 13.84C70.8333 13.84 70.4533 13.94 70.12 14.14C69.7867 14.3267 69.5267 14.5933 69.34 14.94C69.1533 15.2867 69.06 15.6867 69.06 16.14C69.06 16.58 69.1533 16.98 69.34 17.34C69.5267 17.6867 69.7867 17.96 70.12 18.16C70.4533 18.3467 70.8333 18.44 71.26 18.44Z" fill="#818CF8"/>
</svg>
