<svg width="32" height="32" viewBox="0 0 32 32" fill="none" xmlns="http://www.w3.org/2000/svg">
<path d="M24 10.6667C24.7072 10.6667 25.3855 10.3858 25.8856 9.8857C26.3857 9.3856 26.6667 8.70733 26.6667 8.00008C26.6667 7.29284 26.3857 6.61456 25.8856 6.11446C25.3855 5.61437 24.7072 5.33341 24 5.33341C24 4.62617 23.719 3.94789 23.2189 3.4478C22.7188 2.9477 22.0406 2.66675 21.3333 2.66675C20.6261 2.66675 19.9478 2.9477 19.4477 3.4478C18.9476 3.94789 18.6667 4.62617 18.6667 5.33341C18.6667 4.62617 18.3857 3.94789 17.8856 3.4478C17.3855 2.9477 16.7072 2.66675 16 2.66675C15.2928 2.66675 14.6145 2.9477 14.1144 3.4478C13.6143 3.94789 13.3333 4.62617 13.3333 5.33341C13.3333 4.62617 13.0524 3.94789 12.5523 3.4478C12.0522 2.9477 11.3739 2.66675 10.6667 2.66675C9.95942 2.66675 9.28114 2.9477 8.78104 3.4478C8.28095 3.94789 8 4.62617 8 5.33341C7.29275 5.33341 6.61447 5.61437 6.11438 6.11446C5.61428 6.61456 5.33333 7.29284 5.33333 8.00008C5.33333 8.70733 5.61428 9.3856 6.11438 9.8857C6.61447 10.3858 7.29275 10.6667 8 10.6667M13.3333 29.3334L12 10.6667M18.6667 29.3334L20 10.6667M26.6667 10.6667C27.3333 10.6667 27.8667 11.2001 27.7333 12.0001L24.2667 28.0001C24.1333 28.6667 23.3333 29.3334 22.6667 29.3334H9.33333C8.53333 29.3334 7.86666 28.8001 7.73333 28.0001L4.26666 12.0001C4.13333 11.2001 4.66666 10.6667 5.33333 10.6667H26.6667Z" stroke="#818CF8" stroke-width="2.66667" stroke-linecap="round" stroke-linejoin="round"/>
</svg>
